<mxfile host="Electron" modified="2024-10-28T12:15:46.703Z" agent="Mozilla/5.0 (Windows NT 10.0; Win64; x64) AppleWebKit/537.36 (KHTML, like Gecko) draw.io/24.4.0 Chrome/120.0.6099.109 Electron/28.1.0 Safari/537.36" etag="CzjUYtgn7RRm18TmgLoq" version="24.4.0" type="device">
  <diagram id="R2lEEEUBdFMjLlhIrx00" name="Page-1">
    <mxGraphModel dx="1098" dy="988" grid="1" gridSize="10" guides="1" tooltips="1" connect="1" arrows="1" fold="1" page="1" pageScale="1" pageWidth="850" pageHeight="1100" math="0" shadow="0" extFonts="Permanent Marker^https://fonts.googleapis.com/css?family=Permanent+Marker">
      <root>
        <mxCell id="0" />
        <mxCell id="1" parent="0" />
        <mxCell id="G7jcynbfPXCcIz8zOsZz-1" value="&lt;b&gt;&lt;i&gt;&lt;u&gt;&lt;font style=&quot;font-size: 36px;&quot;&gt;ERD&lt;/font&gt;&lt;/u&gt;&lt;/i&gt;&lt;/b&gt;" style="rounded=1;whiteSpace=wrap;html=1;" parent="1" vertex="1">
          <mxGeometry x="365" y="80" width="120" height="60" as="geometry" />
        </mxCell>
        <mxCell id="G7jcynbfPXCcIz8zOsZz-2" value="DB Schule&lt;div&gt;&lt;br&gt;&lt;/div&gt;" style="shape=datastore;whiteSpace=wrap;html=1;" parent="1" vertex="1">
          <mxGeometry x="345" y="540" width="170" height="170" as="geometry" />
        </mxCell>
        <mxCell id="G7jcynbfPXCcIz8zOsZz-22" style="edgeStyle=orthogonalEdgeStyle;rounded=0;orthogonalLoop=1;jettySize=auto;html=1;exitX=1;exitY=0.5;exitDx=0;exitDy=0;entryX=0;entryY=0.5;entryDx=0;entryDy=0;" parent="1" source="G7jcynbfPXCcIz8zOsZz-4" target="G7jcynbfPXCcIz8zOsZz-21" edge="1">
          <mxGeometry relative="1" as="geometry" />
        </mxCell>
        <mxCell id="G7jcynbfPXCcIz8zOsZz-29" style="rounded=0;orthogonalLoop=1;jettySize=auto;html=1;exitX=0.5;exitY=0;exitDx=0;exitDy=0;entryX=0.5;entryY=1;entryDx=0;entryDy=0;" parent="1" source="G7jcynbfPXCcIz8zOsZz-4" target="G7jcynbfPXCcIz8zOsZz-13" edge="1">
          <mxGeometry relative="1" as="geometry" />
        </mxCell>
        <mxCell id="G7jcynbfPXCcIz8zOsZz-30" style="rounded=0;orthogonalLoop=1;jettySize=auto;html=1;exitX=0;exitY=0;exitDx=0;exitDy=0;entryX=1;entryY=1;entryDx=0;entryDy=0;" parent="1" source="G7jcynbfPXCcIz8zOsZz-4" target="G7jcynbfPXCcIz8zOsZz-11" edge="1">
          <mxGeometry relative="1" as="geometry" />
        </mxCell>
        <mxCell id="G7jcynbfPXCcIz8zOsZz-31" style="rounded=0;orthogonalLoop=1;jettySize=auto;html=1;exitX=0;exitY=0.5;exitDx=0;exitDy=0;" parent="1" source="G7jcynbfPXCcIz8zOsZz-4" target="G7jcynbfPXCcIz8zOsZz-10" edge="1">
          <mxGeometry relative="1" as="geometry" />
        </mxCell>
        <mxCell id="G7jcynbfPXCcIz8zOsZz-33" style="rounded=0;orthogonalLoop=1;jettySize=auto;html=1;exitX=0.5;exitY=1;exitDx=0;exitDy=0;entryX=0.5;entryY=0;entryDx=0;entryDy=0;" parent="1" source="G7jcynbfPXCcIz8zOsZz-4" target="G7jcynbfPXCcIz8zOsZz-8" edge="1">
          <mxGeometry relative="1" as="geometry" />
        </mxCell>
        <mxCell id="G7jcynbfPXCcIz8zOsZz-4" value="Lehrer" style="rounded=1;arcSize=10;whiteSpace=wrap;html=1;align=center;" parent="1" vertex="1">
          <mxGeometry x="220" y="340" width="100" height="40" as="geometry" />
        </mxCell>
        <mxCell id="G7jcynbfPXCcIz8zOsZz-34" style="rounded=0;orthogonalLoop=1;jettySize=auto;html=1;exitX=0.25;exitY=0;exitDx=0;exitDy=0;entryX=0.5;entryY=1;entryDx=0;entryDy=0;" parent="1" source="G7jcynbfPXCcIz8zOsZz-6" target="G7jcynbfPXCcIz8zOsZz-17" edge="1">
          <mxGeometry relative="1" as="geometry" />
        </mxCell>
        <mxCell id="G7jcynbfPXCcIz8zOsZz-35" style="rounded=0;orthogonalLoop=1;jettySize=auto;html=1;exitX=0.75;exitY=0;exitDx=0;exitDy=0;" parent="1" source="G7jcynbfPXCcIz8zOsZz-6" target="G7jcynbfPXCcIz8zOsZz-12" edge="1">
          <mxGeometry relative="1" as="geometry" />
        </mxCell>
        <mxCell id="G7jcynbfPXCcIz8zOsZz-36" style="rounded=0;orthogonalLoop=1;jettySize=auto;html=1;exitX=1;exitY=0;exitDx=0;exitDy=0;entryX=0.5;entryY=1;entryDx=0;entryDy=0;" parent="1" source="G7jcynbfPXCcIz8zOsZz-6" target="G7jcynbfPXCcIz8zOsZz-20" edge="1">
          <mxGeometry relative="1" as="geometry" />
        </mxCell>
        <mxCell id="G7jcynbfPXCcIz8zOsZz-37" style="rounded=0;orthogonalLoop=1;jettySize=auto;html=1;exitX=1;exitY=0.5;exitDx=0;exitDy=0;entryX=0;entryY=0.5;entryDx=0;entryDy=0;" parent="1" source="G7jcynbfPXCcIz8zOsZz-6" target="G7jcynbfPXCcIz8zOsZz-7" edge="1">
          <mxGeometry relative="1" as="geometry" />
        </mxCell>
        <mxCell id="G7jcynbfPXCcIz8zOsZz-38" style="rounded=0;orthogonalLoop=1;jettySize=auto;html=1;exitX=1;exitY=1;exitDx=0;exitDy=0;entryX=0.5;entryY=0;entryDx=0;entryDy=0;" parent="1" source="G7jcynbfPXCcIz8zOsZz-6" target="G7jcynbfPXCcIz8zOsZz-19" edge="1">
          <mxGeometry relative="1" as="geometry" />
        </mxCell>
        <mxCell id="G7jcynbfPXCcIz8zOsZz-39" style="rounded=0;orthogonalLoop=1;jettySize=auto;html=1;exitX=0.5;exitY=1;exitDx=0;exitDy=0;entryX=0.5;entryY=0;entryDx=0;entryDy=0;" parent="1" source="G7jcynbfPXCcIz8zOsZz-6" target="G7jcynbfPXCcIz8zOsZz-18" edge="1">
          <mxGeometry relative="1" as="geometry" />
        </mxCell>
        <mxCell id="G7jcynbfPXCcIz8zOsZz-6" value="Klassen" style="rounded=1;arcSize=10;whiteSpace=wrap;html=1;align=center;" parent="1" vertex="1">
          <mxGeometry x="540" y="340" width="100" height="40" as="geometry" />
        </mxCell>
        <mxCell id="G7jcynbfPXCcIz8zOsZz-7" value="Anz. Sch端ler" style="ellipse;whiteSpace=wrap;html=1;align=center;" parent="1" vertex="1">
          <mxGeometry x="720" y="340" width="100" height="40" as="geometry" />
        </mxCell>
        <mxCell id="G7jcynbfPXCcIz8zOsZz-8" value="Attribute" style="ellipse;whiteSpace=wrap;html=1;align=center;" parent="1" vertex="1">
          <mxGeometry x="220" y="440" width="100" height="40" as="geometry" />
        </mxCell>
        <mxCell id="G7jcynbfPXCcIz8zOsZz-9" value="Pr端fung" style="ellipse;whiteSpace=wrap;html=1;align=center;" parent="1" vertex="1">
          <mxGeometry x="90" y="410" width="100" height="40" as="geometry" />
        </mxCell>
        <mxCell id="G7jcynbfPXCcIz8zOsZz-10" value="Thema" style="ellipse;whiteSpace=wrap;html=1;align=center;" parent="1" vertex="1">
          <mxGeometry x="70" y="330" width="100" height="40" as="geometry" />
        </mxCell>
        <mxCell id="G7jcynbfPXCcIz8zOsZz-11" value="Fach" style="ellipse;whiteSpace=wrap;html=1;align=center;" parent="1" vertex="1">
          <mxGeometry x="100" y="260" width="100" height="40" as="geometry" />
        </mxCell>
        <mxCell id="G7jcynbfPXCcIz8zOsZz-12" value="Unterrichtseinheit" style="ellipse;whiteSpace=wrap;html=1;align=center;" parent="1" vertex="1">
          <mxGeometry x="600" y="210" width="100" height="40" as="geometry" />
        </mxCell>
        <mxCell id="G7jcynbfPXCcIz8zOsZz-13" value="&lt;u&gt;Lehrer ID&lt;/u&gt;" style="ellipse;whiteSpace=wrap;html=1;align=center;" parent="1" vertex="1">
          <mxGeometry x="210" y="220" width="100" height="40" as="geometry" />
        </mxCell>
        <mxCell id="G7jcynbfPXCcIz8zOsZz-17" value="Sch端lerNamen" style="ellipse;whiteSpace=wrap;html=1;align=center;" parent="1" vertex="1">
          <mxGeometry x="480" y="210" width="100" height="40" as="geometry" />
        </mxCell>
        <mxCell id="G7jcynbfPXCcIz8zOsZz-18" value="Klassen ID" style="ellipse;whiteSpace=wrap;html=1;align=center;" parent="1" vertex="1">
          <mxGeometry x="490" y="440" width="100" height="40" as="geometry" />
        </mxCell>
        <mxCell id="G7jcynbfPXCcIz8zOsZz-19" value="Notendurchschnitt" style="ellipse;whiteSpace=wrap;html=1;align=center;" parent="1" vertex="1">
          <mxGeometry x="640" y="440" width="100" height="40" as="geometry" />
        </mxCell>
        <mxCell id="G7jcynbfPXCcIz8zOsZz-20" value="Sch端ler ID" style="ellipse;whiteSpace=wrap;html=1;align=center;" parent="1" vertex="1">
          <mxGeometry x="680" y="260" width="100" height="40" as="geometry" />
        </mxCell>
        <mxCell id="G7jcynbfPXCcIz8zOsZz-23" style="edgeStyle=orthogonalEdgeStyle;rounded=0;orthogonalLoop=1;jettySize=auto;html=1;exitX=1;exitY=0.5;exitDx=0;exitDy=0;entryX=0;entryY=0.5;entryDx=0;entryDy=0;" parent="1" source="G7jcynbfPXCcIz8zOsZz-21" target="G7jcynbfPXCcIz8zOsZz-6" edge="1">
          <mxGeometry relative="1" as="geometry" />
        </mxCell>
        <mxCell id="G7jcynbfPXCcIz8zOsZz-21" value="haben" style="shape=rhombus;perimeter=rhombusPerimeter;whiteSpace=wrap;html=1;align=center;" parent="1" vertex="1">
          <mxGeometry x="370" y="330" width="120" height="60" as="geometry" />
        </mxCell>
        <mxCell id="G7jcynbfPXCcIz8zOsZz-24" value="1" style="text;html=1;align=center;verticalAlign=middle;resizable=0;points=[];autosize=1;strokeColor=none;fillColor=none;" parent="1" vertex="1">
          <mxGeometry x="330" y="330" width="30" height="30" as="geometry" />
        </mxCell>
        <mxCell id="G7jcynbfPXCcIz8zOsZz-25" value="1" style="text;html=1;align=center;verticalAlign=middle;resizable=0;points=[];autosize=1;strokeColor=none;fillColor=none;" parent="1" vertex="1">
          <mxGeometry x="515" y="328" width="30" height="30" as="geometry" />
        </mxCell>
        <mxCell id="G7jcynbfPXCcIz8zOsZz-26" value="N" style="text;html=1;align=center;verticalAlign=middle;resizable=0;points=[];autosize=1;strokeColor=none;fillColor=none;" parent="1" vertex="1">
          <mxGeometry x="515" y="358" width="30" height="30" as="geometry" />
        </mxCell>
        <mxCell id="G7jcynbfPXCcIz8zOsZz-27" value="N" style="text;html=1;align=center;verticalAlign=middle;resizable=0;points=[];autosize=1;strokeColor=none;fillColor=none;" parent="1" vertex="1">
          <mxGeometry x="330" y="360" width="30" height="30" as="geometry" />
        </mxCell>
        <mxCell id="G7jcynbfPXCcIz8zOsZz-32" style="rounded=0;orthogonalLoop=1;jettySize=auto;html=1;exitX=0;exitY=1;exitDx=0;exitDy=0;entryX=0.92;entryY=0.2;entryDx=0;entryDy=0;entryPerimeter=0;" parent="1" source="G7jcynbfPXCcIz8zOsZz-4" target="G7jcynbfPXCcIz8zOsZz-9" edge="1">
          <mxGeometry relative="1" as="geometry" />
        </mxCell>
        <mxCell id="G7jcynbfPXCcIz8zOsZz-40" value="" style="endArrow=none;html=1;rounded=0;entryX=0.5;entryY=1;entryDx=0;entryDy=0;exitX=0.5;exitY=0;exitDx=0;exitDy=0;" parent="1" source="G7jcynbfPXCcIz8zOsZz-2" target="G7jcynbfPXCcIz8zOsZz-21" edge="1">
          <mxGeometry width="50" height="50" relative="1" as="geometry">
            <mxPoint x="400" y="450" as="sourcePoint" />
            <mxPoint x="450" y="400" as="targetPoint" />
          </mxGeometry>
        </mxCell>
      </root>
    </mxGraphModel>
  </diagram>
</mxfile>
